<svg width="118" height="73" viewBox="0 0 118 73" fill="none" xmlns="http://www.w3.org/2000/svg">
<g opacity="0.7">
<g opacity="0.7" filter="url(#filter0_d)">
<path opacity="0.7" d="M6 7.13986C6 4.78154 7.74302 2.86975 9.89316 2.86975L92.2561 2.86975C94.4061 2.86975 96.1493 4.78154 96.1493 7.13986V58.5996C96.1493 60.9578 94.4061 62.8698 92.2561 62.8698H9.89316C7.74302 62.8698 6 60.9578 6 58.5996V7.13986Z" fill="#0B4F6C"/>
<path opacity="0.7" d="M6.96344 7.13989C6.96344 5.36519 8.27513 3.92651 9.89315 3.92651L92.2561 3.92651C93.8741 3.92651 95.1857 5.36519 95.1857 7.13989V58.5997C95.1857 60.3743 93.8741 61.8129 92.2561 61.8129H9.89315C8.27513 61.8129 6.96344 60.3743 6.96344 58.5997V7.13989Z" stroke="#B80C09" stroke-width="5.9393" stroke-linecap="round" stroke-linejoin="round"/>
<path opacity="0.7" d="M6.96344 7.13989C6.96344 5.36519 8.27513 3.92651 9.89315 3.92651L92.2561 3.92651C93.8741 3.92651 95.1857 5.36519 95.1857 7.13989V58.5997C95.1857 60.3743 93.8741 61.8129 92.2561 61.8129H9.89315C8.27513 61.8129 6.96344 60.3743 6.96344 58.5997V7.13989Z" stroke="url(#paint0_linear)" stroke-width="5.9393" stroke-linecap="round" stroke-linejoin="round"/>
</g>
<path opacity="0.7" fill-rule="evenodd" clip-rule="evenodd" d="M8.89398 52.8677L31.2187 15.1294C31.2187 15.1294 49.4091 -6.7318 69.4897 15.1294L92.4642 52.8677H69.4897L61.7014 40.4061C60.9993 44.0226 57.027 46.8889 51.9938 47.4219L62.1073 57.7901C60.8079 63.7259 46.338 57.7901 46.338 57.7901L39.8504 42.7405C39.3777 42.0135 39.0484 41.2292 38.8888 40.4058L31.2187 52.8677H8.89398ZM53.9569 28.0145L56.6961 32.3976C54.8657 31.519 52.6638 31.0066 50.2951 31.0066C47.8791 31.0066 45.6369 31.5396 43.7851 32.4506L46.5152 28.0145L46.5223 28.0032L46.5745 27.918C49.9295 22.5297 53.9569 28.0145 53.9569 28.0145Z" fill="#B80C09"/>
<path opacity="0.7" fill-rule="evenodd" clip-rule="evenodd" d="M8.89398 52.8677L31.2187 15.1294C31.2187 15.1294 49.4091 -6.7318 69.4897 15.1294L92.4642 52.8677H69.4897L61.7014 40.4061C60.9993 44.0226 57.027 46.8889 51.9938 47.4219L62.1073 57.7901C60.8079 63.7259 46.338 57.7901 46.338 57.7901L39.8504 42.7405C39.3777 42.0135 39.0484 41.2292 38.8888 40.4058L31.2187 52.8677H8.89398ZM53.9569 28.0145L56.6961 32.3976C54.8657 31.519 52.6638 31.0066 50.2951 31.0066C47.8791 31.0066 45.6369 31.5396 43.7851 32.4506L46.5152 28.0145L46.5223 28.0032L46.5745 27.918C49.9295 22.5297 53.9569 28.0145 53.9569 28.0145Z" fill="url(#paint1_linear)"/>
<path opacity="0.7" fill-rule="evenodd" clip-rule="evenodd" d="M8.89398 52.8677L31.2187 15.1294C31.2187 15.1294 49.4091 -6.7318 69.4897 15.1294L92.4642 52.8677H69.4897L61.7014 40.4061C60.9993 44.0226 57.027 46.8889 51.9938 47.4219L62.1073 57.7901C60.8079 63.7259 46.338 57.7901 46.338 57.7901L39.8504 42.7405C39.3777 42.0135 39.0484 41.2292 38.8888 40.4058L31.2187 52.8677H8.89398ZM53.9569 28.0145L56.6961 32.3976C54.8657 31.519 52.6638 31.0066 50.2951 31.0066C47.8791 31.0066 45.6369 31.5396 43.7851 32.4506L46.5152 28.0145L46.5223 28.0032L46.5745 27.918C49.9295 22.5297 53.9569 28.0145 53.9569 28.0145Z" fill="url(#paint2_linear)"/>
<path opacity="0.7" d="M115 55.6319C115 58.2431 112.403 60.7852 108.656 60.7852C104.909 60.7852 102.311 58.2431 102.311 55.6319C102.311 53.0208 104.909 50.4783 108.656 50.4783C112.403 50.4783 115 53.0208 115 55.6319Z" fill="#0B4F6C" stroke="#B80C09" stroke-width="5.9393"/>
</g>
<defs>
<filter id="filter0_d" x="0.0342345" y="0.956838" width="102.081" height="71.7448" filterUnits="userSpaceOnUse" color-interpolation-filters="sRGB">
<feFlood flood-opacity="0" result="BackgroundImageFix"/>
<feColorMatrix in="SourceAlpha" type="matrix" values="0 0 0 0 0 0 0 0 0 0 0 0 0 0 0 0 0 0 127 0"/>
<feOffset dy="3.95953"/>
<feGaussianBlur stdDeviation="1.97977"/>
<feColorMatrix type="matrix" values="0 0 0 0 0 0 0 0 0 0 0 0 0 0 0 0 0 0 0.25 0"/>
<feBlend mode="normal" in2="BackgroundImageFix" result="effect1_dropShadow"/>
<feBlend mode="normal" in="SourceGraphic" in2="effect1_dropShadow" result="shape"/>
</filter>
<linearGradient id="paint0_linear" x1="14.8795" y1="20.2947" x2="34.335" y2="69.4898" gradientUnits="userSpaceOnUse">
<stop offset="0.450743" stop-color="white" stop-opacity="0"/>
<stop offset="1" stop-color="#707070"/>
</linearGradient>
<linearGradient id="paint1_linear" x1="113.333" y1="102.532" x2="24.862" y2="-10.59" gradientUnits="userSpaceOnUse">
<stop offset="0.498904" stop-color="#558564"/>
<stop offset="0.916667" stop-opacity="0"/>
<stop offset="0.958333" stop-color="#291018" stop-opacity="0"/>
<stop offset="1" stop-color="white" stop-opacity="0"/>
</linearGradient>
<linearGradient id="paint2_linear" x1="34.1717" y1="31.9557" x2="68.9018" y2="67.3749" gradientUnits="userSpaceOnUse">
<stop offset="0.453943" stop-color="white" stop-opacity="0"/>
<stop offset="1" stop-color="#1C2620" stop-opacity="0.17"/>
</linearGradient>
</defs>
</svg>
