<svg width="178" height="130" viewBox="0 0 178 130" fill="none" xmlns="http://www.w3.org/2000/svg">
<g opacity="0.7">
<g opacity="0.7" filter="url(#filter0_d)">
<path opacity="0.7" d="M6 9.38605C6 4.68261 8.70249 0.869751 12.0362 0.869751L139.737 0.869751C143.07 0.869751 145.773 4.68263 145.773 9.38605V112.017C145.773 116.721 143.07 120.534 139.737 120.534H12.0362C8.70249 120.534 6 116.721 6 112.017L6 9.38605Z" fill="#0B4F6C"/>
<path opacity="0.7" d="M7.49371 9.38612C7.49371 5.84665 9.52743 2.97736 12.0361 2.97736L139.737 2.97736C142.245 2.97736 144.279 5.84665 144.279 9.38612V112.017C144.279 115.557 142.245 118.426 139.737 118.426H12.0361C9.52743 118.426 7.49371 115.557 7.49371 112.017L7.49371 9.38612Z" stroke="#B80C09" stroke-width="5.9393" stroke-linecap="round" stroke-linejoin="round"/>
<path opacity="0.7" d="M7.49371 9.38612C7.49371 5.84665 9.52743 2.97736 12.0361 2.97736L139.737 2.97736C142.245 2.97736 144.279 5.84665 144.279 9.38612V112.017C144.279 115.557 142.245 118.426 139.737 118.426H12.0361C9.52743 118.426 7.49371 115.557 7.49371 112.017L7.49371 9.38612Z" stroke="url(#paint0_linear)" stroke-width="5.9393" stroke-linecap="round" stroke-linejoin="round"/>
</g>
<path opacity="0.7" fill-rule="evenodd" clip-rule="evenodd" d="M10.4869 100.586L45.1005 25.3205C45.1005 25.3205 73.304 -18.2796 104.438 25.3205L140.059 100.586H104.438L92.3627 75.7323C91.2742 82.9449 85.1153 88.6615 77.3115 89.7246L92.992 110.403C90.9774 122.241 68.5424 110.403 68.5424 110.403L58.4836 80.3879C57.7507 78.938 57.2402 77.3738 56.9927 75.7316L45.1005 100.586H10.4869ZM80.3552 51.0185L84.6022 59.7601C81.7642 58.0078 78.3502 56.9859 74.6777 56.9859C70.9317 56.9859 67.4554 58.049 64.5842 59.8658L68.8171 51.0185L68.8281 50.9958L68.9091 50.826C74.1108 40.0795 80.3552 51.0185 80.3552 51.0185Z" fill="#B80C09"/>
<path opacity="0.7" fill-rule="evenodd" clip-rule="evenodd" d="M10.4869 100.586L45.1005 25.3205C45.1005 25.3205 73.304 -18.2796 104.438 25.3205L140.059 100.586H104.438L92.3627 75.7323C91.2742 82.9449 85.1153 88.6615 77.3115 89.7246L92.992 110.403C90.9774 122.241 68.5424 110.403 68.5424 110.403L58.4836 80.3879C57.7507 78.938 57.2402 77.3738 56.9927 75.7316L45.1005 100.586H10.4869ZM80.3552 51.0185L84.6022 59.7601C81.7642 58.0078 78.3502 56.9859 74.6777 56.9859C70.9317 56.9859 67.4554 58.049 64.5842 59.8658L68.8171 51.0185L68.8281 50.9958L68.9091 50.826C74.1108 40.0795 80.3552 51.0185 80.3552 51.0185Z" fill="url(#paint1_linear)"/>
<path opacity="0.7" fill-rule="evenodd" clip-rule="evenodd" d="M10.4869 100.586L45.1005 25.3205C45.1005 25.3205 73.304 -18.2796 104.438 25.3205L140.059 100.586H104.438L92.3627 75.7323C91.2742 82.9449 85.1153 88.6615 77.3115 89.7246L92.992 110.403C90.9774 122.241 68.5424 110.403 68.5424 110.403L58.4836 80.3879C57.7507 78.938 57.2402 77.3738 56.9927 75.7316L45.1005 100.586H10.4869ZM80.3552 51.0185L84.6022 59.7601C81.7642 58.0078 78.3502 56.9859 74.6777 56.9859C70.9317 56.9859 67.4554 58.049 64.5842 59.8658L68.8171 51.0185L68.8281 50.9958L68.9091 50.826C74.1108 40.0795 80.3552 51.0185 80.3552 51.0185Z" fill="url(#paint2_linear)"/>
<path opacity="0.7" d="M175 106.099C175 111.306 170.973 116.376 165.163 116.376C159.354 116.376 155.327 111.306 155.327 106.099C155.327 100.891 159.354 95.8201 165.163 95.8201C170.973 95.8201 175 100.891 175 106.099Z" fill="#0B4F6C" stroke="#B80C09" stroke-width="5.9393"/>
</g>
<defs>
<filter id="filter0_d" x="0.564508" y="0.00768065" width="150.643" height="129.307" filterUnits="userSpaceOnUse" color-interpolation-filters="sRGB">
<feFlood flood-opacity="0" result="BackgroundImageFix"/>
<feColorMatrix in="SourceAlpha" type="matrix" values="0 0 0 0 0 0 0 0 0 0 0 0 0 0 0 0 0 0 127 0"/>
<feOffset dy="3.95953"/>
<feGaussianBlur stdDeviation="1.97977"/>
<feColorMatrix type="matrix" values="0 0 0 0 0 0 0 0 0 0 0 0 0 0 0 0 0 0 0.25 0"/>
<feBlend mode="normal" in2="BackgroundImageFix" result="effect1_dropShadow"/>
<feBlend mode="normal" in="SourceGraphic" in2="effect1_dropShadow" result="shape"/>
</filter>
<linearGradient id="paint0_linear" x1="19.7673" y1="35.6221" x2="65.6197" y2="125.756" gradientUnits="userSpaceOnUse">
<stop offset="0.450743" stop-color="white" stop-opacity="0"/>
<stop offset="1" stop-color="#707070"/>
</linearGradient>
<linearGradient id="paint1_linear" x1="172.416" y1="199.636" x2="-9.38456" y2="18.9237" gradientUnits="userSpaceOnUse">
<stop offset="0.498904" stop-color="#558564"/>
<stop offset="0.916667" stop-opacity="0"/>
<stop offset="0.958333" stop-color="#291018" stop-opacity="0"/>
<stop offset="1" stop-color="white" stop-opacity="0"/>
</linearGradient>
<linearGradient id="paint2_linear" x1="49.679" y1="58.8787" x2="117.132" y2="112.358" gradientUnits="userSpaceOnUse">
<stop offset="0.453943" stop-color="white" stop-opacity="0"/>
<stop offset="1" stop-color="#1C2620" stop-opacity="0.17"/>
</linearGradient>
</defs>
</svg>
