<svg width="208" height="138" viewBox="0 0 208 138" fill="none" xmlns="http://www.w3.org/2000/svg">
<g clip-path="url(#clip0)">
<g opacity="0.7">
<g opacity="0.7" filter="url(#filter0_d)">
<path opacity="0.7" d="M2.42566 9.35593C2.42566 4.18878 5.68367 0 9.70263 0H163.653C167.672 0 170.93 4.18879 170.93 9.35593V122.106C170.93 127.273 167.672 131.462 163.653 131.462H9.70263C5.68367 131.462 2.42566 127.273 2.42566 122.106V9.35593Z" fill="#0B4F6C"/>
<path opacity="0.7" d="M4.22644 9.35592C4.22644 5.46748 6.6782 2.31531 9.70257 2.31531H163.653C166.677 2.31531 169.129 5.46749 169.129 9.35592V122.106C169.129 125.994 166.677 129.146 163.653 129.146H9.70257C6.6782 129.146 4.22644 125.994 4.22644 122.106V9.35592Z" stroke="#B80C09" stroke-width="5.9393" stroke-linecap="round" stroke-linejoin="round"/>
<path opacity="0.7" d="M4.22644 9.35592C4.22644 5.46748 6.6782 2.31531 9.70257 2.31531H163.653C166.677 2.31531 169.129 5.46749 169.129 9.35592V122.106C169.129 125.994 166.677 129.146 163.653 129.146H9.70257C6.6782 129.146 4.22644 125.994 4.22644 122.106V9.35592Z" stroke="url(#paint0_linear)" stroke-width="5.9393" stroke-linecap="round" stroke-linejoin="round"/>
</g>
<path opacity="0.7" fill-rule="evenodd" clip-rule="evenodd" d="M7.8349 109.547L49.5636 26.8613C49.5636 26.8613 83.5644 -21.0373 121.098 26.8613L164.042 109.547H121.098L106.541 82.2433C105.229 90.167 97.8036 96.4472 88.3957 97.6151L107.299 120.332C104.871 133.338 77.8241 120.332 77.8241 120.332L65.6977 87.3579C64.8141 85.765 64.1986 84.0467 63.9002 82.2425L49.5636 109.547H7.8349ZM92.0651 55.0929L97.1851 64.6964C93.7637 62.7714 89.648 61.6486 85.2205 61.6486C80.7046 61.6486 76.5137 62.8166 73.0522 64.8125L78.1552 55.0929L78.1686 55.0681L78.2662 54.8815C84.5371 43.0755 92.0651 55.0929 92.0651 55.0929Z" fill="#B80C09"/>
<path opacity="0.7" fill-rule="evenodd" clip-rule="evenodd" d="M7.8349 109.547L49.5636 26.8613C49.5636 26.8613 83.5644 -21.0373 121.098 26.8613L164.042 109.547H121.098L106.541 82.2433C105.229 90.167 97.8036 96.4472 88.3957 97.6151L107.299 120.332C104.871 133.338 77.8241 120.332 77.8241 120.332L65.6977 87.3579C64.8141 85.765 64.1986 84.0467 63.9002 82.2425L49.5636 109.547H7.8349ZM92.0651 55.0929L97.1851 64.6964C93.7637 62.7714 89.648 61.6486 85.2205 61.6486C80.7046 61.6486 76.5137 62.8166 73.0522 64.8125L78.1552 55.0929L78.1686 55.0681L78.2662 54.8815C84.5371 43.0755 92.0651 55.0929 92.0651 55.0929Z" fill="url(#paint1_linear)"/>
<path opacity="0.7" fill-rule="evenodd" clip-rule="evenodd" d="M7.8349 109.547L49.5636 26.8613C49.5636 26.8613 83.5644 -21.0373 121.098 26.8613L164.042 109.547H121.098L106.541 82.2433C105.229 90.167 97.8036 96.4472 88.3957 97.6151L107.299 120.332C104.871 133.338 77.8241 120.332 77.8241 120.332L65.6977 87.3579C64.8141 85.765 64.1986 84.0467 63.9002 82.2425L49.5636 109.547H7.8349ZM92.0651 55.0929L97.1851 64.6964C93.7637 62.7714 89.648 61.6486 85.2205 61.6486C80.7046 61.6486 76.5137 62.8166 73.0522 64.8125L78.1552 55.0929L78.1686 55.0681L78.2662 54.8815C84.5371 43.0755 92.0651 55.0929 92.0651 55.0929Z" fill="url(#paint2_linear)"/>
<path opacity="0.7" d="M206.165 115.603C206.165 121.325 201.31 126.894 194.306 126.894C187.302 126.894 182.448 121.325 182.448 115.603C182.448 109.882 187.302 104.312 194.306 104.312C201.31 104.312 206.165 109.882 206.165 115.603Z" fill="#0B4F6C" stroke="#B80C09" stroke-width="5.9393"/>
</g>
</g>
<defs>
<filter id="filter0_d" x="-2.70276" y="-0.654368" width="178.761" height="140.689" filterUnits="userSpaceOnUse" color-interpolation-filters="sRGB">
<feFlood flood-opacity="0" result="BackgroundImageFix"/>
<feColorMatrix in="SourceAlpha" type="matrix" values="0 0 0 0 0 0 0 0 0 0 0 0 0 0 0 0 0 0 127 0"/>
<feOffset dy="3.95953"/>
<feGaussianBlur stdDeviation="1.97977"/>
<feColorMatrix type="matrix" values="0 0 0 0 0 0 0 0 0 0 0 0 0 0 0 0 0 0 0.25 0"/>
<feBlend mode="normal" in2="BackgroundImageFix" result="effect1_dropShadow"/>
<feBlend mode="normal" in="SourceGraphic" in2="effect1_dropShadow" result="shape"/>
</filter>
<linearGradient id="paint0_linear" x1="19.023" y1="38.1786" x2="66.5847" y2="140.776" gradientUnits="userSpaceOnUse">
<stop offset="0.450743" stop-color="white" stop-opacity="0"/>
<stop offset="1" stop-color="#707070"/>
</linearGradient>
<linearGradient id="paint1_linear" x1="203.05" y1="218.363" x2="4.07352" y2="1.32001" gradientUnits="userSpaceOnUse">
<stop offset="0.498904" stop-color="#558564"/>
<stop offset="0.916667" stop-opacity="0"/>
<stop offset="0.958333" stop-color="#291018" stop-opacity="0"/>
<stop offset="1" stop-color="white" stop-opacity="0"/>
</linearGradient>
<linearGradient id="paint2_linear" x1="55.0832" y1="63.7282" x2="130.461" y2="129.309" gradientUnits="userSpaceOnUse">
<stop offset="0.453943" stop-color="white" stop-opacity="0"/>
<stop offset="1" stop-color="#1C2620" stop-opacity="0.17"/>
</linearGradient>
<clipPath id="clip0">
<rect width="208" height="138" fill="white"/>
</clipPath>
</defs>
</svg>
