<svg width="90" height="73" viewBox="0 0 90 73" fill="none" xmlns="http://www.w3.org/2000/svg">
<g opacity="0.7">
<g opacity="0.7" filter="url(#filter0_d)">
<path opacity="0.7" d="M7 7.13986C7 4.78154 8.27928 2.86975 9.85736 2.86975L70.3073 2.86975C71.8853 2.86975 73.1646 4.78154 73.1646 7.13986V58.5996C73.1646 60.9578 71.8853 62.8698 70.3073 62.8698H9.85736C8.27928 62.8698 7 60.9578 7 58.5996V7.13986Z" fill="#0B4F6C"/>
<path opacity="0.7" d="M7.70709 7.13989C7.70709 5.36519 8.6698 3.92651 9.85734 3.92651L70.3072 3.92651C71.4947 3.92651 72.4574 5.36519 72.4574 7.13989V58.5997C72.4574 60.3743 71.4947 61.8129 70.3072 61.8129H9.85734C8.6698 61.8129 7.70709 60.3743 7.70709 58.5997V7.13989Z" stroke="#B80C09" stroke-width="5.9393" stroke-linecap="round" stroke-linejoin="round"/>
<path opacity="0.7" d="M7.70709 7.13989C7.70709 5.36519 8.6698 3.92651 9.85734 3.92651L70.3072 3.92651C71.4947 3.92651 72.4574 5.36519 72.4574 7.13989V58.5997C72.4574 60.3743 71.4947 61.8129 70.3072 61.8129H9.85734C8.6698 61.8129 7.70709 60.3743 7.70709 58.5997V7.13989Z" stroke="url(#paint0_linear)" stroke-width="5.9393" stroke-linecap="round" stroke-linejoin="round"/>
</g>
<path opacity="0.7" fill-rule="evenodd" clip-rule="evenodd" d="M9.12402 52.8677L25.5092 15.1294C25.5092 15.1294 38.8599 -6.7318 53.5979 15.1294L70.46 52.8677H53.5979L47.8818 40.4061C47.3665 44.0226 44.451 46.8889 40.7569 47.4219L48.1797 57.7901C47.226 63.7259 36.6059 57.7901 36.6059 57.7901L31.8443 42.7405C31.4974 42.0135 31.2557 41.2292 31.1386 40.4058L25.5092 52.8677H9.12402ZM42.1978 28.0145L44.2082 32.3976C42.8647 31.519 41.2486 31.0066 39.5102 31.0066C37.7369 31.0066 36.0913 31.5396 34.7322 32.4506L36.7359 28.0145L36.7411 28.0032L36.7795 27.918C39.2418 22.5297 42.1978 28.0145 42.1978 28.0145Z" fill="#B80C09"/>
<path opacity="0.7" fill-rule="evenodd" clip-rule="evenodd" d="M9.12402 52.8677L25.5092 15.1294C25.5092 15.1294 38.8599 -6.7318 53.5979 15.1294L70.46 52.8677H53.5979L47.8818 40.4061C47.3665 44.0226 44.451 46.8889 40.7569 47.4219L48.1797 57.7901C47.226 63.7259 36.6059 57.7901 36.6059 57.7901L31.8443 42.7405C31.4974 42.0135 31.2557 41.2292 31.1386 40.4058L25.5092 52.8677H9.12402ZM42.1978 28.0145L44.2082 32.3976C42.8647 31.519 41.2486 31.0066 39.5102 31.0066C37.7369 31.0066 36.0913 31.5396 34.7322 32.4506L36.7359 28.0145L36.7411 28.0032L36.7795 27.918C39.2418 22.5297 42.1978 28.0145 42.1978 28.0145Z" fill="url(#paint1_linear)"/>
<path opacity="0.7" fill-rule="evenodd" clip-rule="evenodd" d="M9.12402 52.8677L25.5092 15.1294C25.5092 15.1294 38.8599 -6.7318 53.5979 15.1294L70.46 52.8677H53.5979L47.8818 40.4061C47.3665 44.0226 44.451 46.8889 40.7569 47.4219L48.1797 57.7901C47.226 63.7259 36.6059 57.7901 36.6059 57.7901L31.8443 42.7405C31.4974 42.0135 31.2557 41.2292 31.1386 40.4058L25.5092 52.8677H9.12402ZM42.1978 28.0145L44.2082 32.3976C42.8647 31.519 41.2486 31.0066 39.5102 31.0066C37.7369 31.0066 36.0913 31.5396 34.7322 32.4506L36.7359 28.0145L36.7411 28.0032L36.7795 27.918C39.2418 22.5297 42.1978 28.0145 42.1978 28.0145Z" fill="url(#paint2_linear)"/>
<path opacity="0.7" d="M87 55.6319C87 58.2431 85.0937 60.7852 82.3435 60.7852C79.5935 60.7852 77.6871 58.2431 77.6871 55.6319C77.6871 53.0208 79.5935 50.4783 82.3435 50.4783C85.0937 50.4783 87 53.0208 87 55.6319Z" fill="#0B4F6C" stroke="#B80C09" stroke-width="5.9393"/>
</g>
<defs>
<filter id="filter0_d" x="0.777887" y="0.956838" width="78.6087" height="71.7448" filterUnits="userSpaceOnUse" color-interpolation-filters="sRGB">
<feFlood flood-opacity="0" result="BackgroundImageFix"/>
<feColorMatrix in="SourceAlpha" type="matrix" values="0 0 0 0 0 0 0 0 0 0 0 0 0 0 0 0 0 0 127 0"/>
<feOffset dy="3.95953"/>
<feGaussianBlur stdDeviation="1.97977"/>
<feColorMatrix type="matrix" values="0 0 0 0 0 0 0 0 0 0 0 0 0 0 0 0 0 0 0.25 0"/>
<feBlend mode="normal" in2="BackgroundImageFix" result="effect1_dropShadow"/>
<feBlend mode="normal" in="SourceGraphic" in2="effect1_dropShadow" result="shape"/>
</filter>
<linearGradient id="paint0_linear" x1="13.5171" y1="20.2947" x2="37.2735" y2="64.3831" gradientUnits="userSpaceOnUse">
<stop offset="0.450743" stop-color="white" stop-opacity="0"/>
<stop offset="1" stop-color="#707070"/>
</linearGradient>
<linearGradient id="paint1_linear" x1="85.7769" y1="102.532" x2="-5.19672" y2="17.1585" gradientUnits="userSpaceOnUse">
<stop offset="0.498904" stop-color="#558564"/>
<stop offset="0.916667" stop-opacity="0"/>
<stop offset="0.958333" stop-color="#291018" stop-opacity="0"/>
<stop offset="1" stop-color="white" stop-opacity="0"/>
</linearGradient>
<linearGradient id="paint2_linear" x1="27.6765" y1="31.9557" x2="61.0051" y2="56.9025" gradientUnits="userSpaceOnUse">
<stop offset="0.453943" stop-color="white" stop-opacity="0"/>
<stop offset="1" stop-color="#1C2620" stop-opacity="0.17"/>
</linearGradient>
</defs>
</svg>
